<svg version="1.1" xmlns="http://www.w3.org/2000/svg" viewBox="0 0 1100 1100">
<defs>
<clipPath id="cat-clip">
<path d="M276.801392,73.444626
	C271.661469,78.186638 268.701843,83.507904 267.655121,90.343781
	C266.514496,97.792824 263.425903,104.969513 262.544250,112.425484
	C261.525269,121.042587 261.290253,129.895187 262.037079,138.531174
	C262.591492,144.942032 267.143524,150.642197 266.257843,157.693619
	C265.906494,160.491104 266.808594,163.627289 267.793213,166.375198
	C270.160370,172.981689 273.363953,179.315262 275.366699,186.016953
	C276.927948,191.241241 278.791656,195.851669 282.902924,199.654541
	C284.124207,200.784195 284.232697,203.651825 284.038239,205.643768
	C283.786652,208.221725 282.884125,210.782455 281.950989,213.232193
	C281.265289,215.032425 280.159241,216.693756 279.099579,218.325455
	C277.447021,220.870102 274.468231,223.207291 274.182526,225.861740
	C273.364410,233.463165 272.526611,241.354630 273.719818,248.808167
	C275.297089,258.660675 279.027435,268.150116 281.363434,277.907837
	C282.427155,282.351166 281.820221,287.199707 282.923004,291.627380
	C285.753235,302.990845 284.557739,313.779297 279.888977,324.398071
	C273.243622,339.512421 269.895386,355.389435 268.918243,371.856415
	C268.689209,375.715851 267.530731,379.603668 266.279999,383.302643
	C263.011139,392.970398 259.466797,402.545319 255.999359,412.145325
	C255.500717,413.525940 255.176758,415.269409 254.162888,416.113312
	C249.230423,420.219269 243.813904,423.776978 239.116516,428.121033
	C235.675751,431.302948 231.903595,434.969452 230.359116,439.182465
	C227.195938,447.811096 227.172577,457.010956 229.153046,466.098053
	C230.380386,471.729492 225.578186,480.814636 220.274521,483.070068
	C212.818359,486.240845 205.972168,490.334747 202.523026,498.059448
	C200.449722,502.702759 197.067307,504.323059 192.389236,505.188202
	C185.770966,506.412231 179.970734,509.109100 176.036514,515.288696
	C172.333557,521.105042 168.512863,527.182007 163.477142,531.746765
	C151.826309,542.307800 151.427292,562.590027 155.821014,574.697937
	C157.371475,578.970520 158.534515,583.537170 158.916641,588.050659
	C159.939331,600.130432 162.748184,603.856689 174.447723,607.272278
	C176.049026,607.739746 177.512222,608.680298 179.039352,609.401855
	L179.128677,611.252686
	C175.819336,612.179016 172.557205,613.361816 169.191391,613.981323
	C160.644165,615.554688 156.856491,618.676758 156.100510,625.822144
	C155.509247,631.410828 155.558105,637.067993 154.946320,642.653503
	C154.576920,646.025879 153.728561,649.397095 152.680634,652.634521
	C148.886856,664.354797 147.962814,675.826294 154.405121,687.056335
	C155.680511,689.279602 156.458984,691.897644 156.959824,694.433716
	C158.137665,700.397949 158.695221,706.499329 160.133392,712.391541
	C160.886337,715.476318 160.354828,717.195312 157.534180,718.175171
	C149.817169,720.856018 146.712448,726.869385 144.637939,734.292236
	C143.432205,738.606567 143.729477,744.147461 138.179672,746.459595
	C132.379501,748.876099 126.546906,751.288757 121.008438,754.230225
	C117.932091,755.864014 114.055740,758.019958 112.896164,760.891968
	C107.113602,775.213745 105.960281,789.952576 111.378113,804.803833
	C112.393799,807.588013 113.334679,810.427246 113.972763,813.315674
	C115.395935,819.757935 117.334663,825.658508 123.849396,829.009399
	C127.729454,831.005005 128.875214,834.534241 127.173241,838.705322
	C126.121742,841.282349 124.938171,843.805115 123.846680,846.366272
	C118.477806,858.964294 118.593971,872.124512 120.116913,885.354065
	C121.136917,894.214600 117.916946,899.840698 109.443436,903.353455
	C106.258934,904.673645 103.240189,906.393677 100.145859,907.931396
	C100.075905,908.399780 100.075905,908.399780 100.075905,908.399780
	C100.053291,922.264587 100.100639,935.660950 100.079216,949.517883
	C108.014603,951.849365 115.783127,955.139038 120.986595,961.856079
	C123.065422,964.539551 123.758835,968.806030 123.887589,972.394836
	C124.275612,983.209778 128.640549,991.282593 138.864822,995.304504
	C147.093796,998.541626 155.510147,1001.366333 163.991211,1003.874023
	C168.880554,1005.319824 172.824966,1007.813477 173.668594,1012.699646
	C175.321777,1022.274719 180.973022,1027.912476 190.212402,1031.642334
	C204.598221,1031.948242 218.336777,1031.901978 232.664703,1031.615723
	C234.929886,1029.499878 237.420395,1026.499023 240.141357,1026.272949
	C246.186127,1025.770996 252.378830,1027.220093 258.453003,1026.868530
	C272.753906,1026.040527 285.264130,1021.380066 293.294739,1008.414978
	C295.730927,1004.481873 298.470612,1000.737854 301.017059,996.871521
	C304.759583,991.189270 309.730347,987.461487 316.128021,984.700256
	C341.550690,973.727966 348.089539,965.393433 347.937347,939.777710
	C347.857086,926.262451 344.815308,921.258911 333.962921,918.704102
	C326.916840,917.045288 322.873108,912.887085 319.413391,907.165100
	C317.516144,904.027222 317.445374,901.602112 319.744873,898.634460
	C326.719696,889.632690 333.132935,880.175659 340.420166,871.442749
	C345.799530,864.996338 352.197327,859.398621 358.157074,853.438416
	C360.472137,851.123169 363.184174,849.112976 365.108582,846.514404
	C374.374573,834.002380 386.432648,826.795654 402.212097,827.076782
	C409.783813,827.211731 417.356720,828.951721 424.893463,828.733643
	C429.204620,828.608887 434.548370,827.127136 437.447388,824.256775
	C441.410004,820.333130 445.094025,816.716980 450.456299,814.915588
	C452.277588,814.303711 454.210449,813.265564 455.468384,811.862732
	C461.892212,804.698669 470.185455,803.413208 479.253265,802.807617
	C490.265778,802.072144 501.206696,800.364685 510.714813,793.677002
	C520.378357,786.879944 531.500916,783.705933 543.066101,781.989624
	C553.814575,780.394592 564.769897,779.685730 575.284424,777.141479
	C591.293579,773.267578 606.799866,767.156860 622.903564,763.885681
	C634.644531,761.500610 645.854370,758.162537 656.978943,753.991333
	C660.454895,752.687988 664.384216,752.138977 668.121704,752.067444
	C683.871216,751.765625 698.832092,748.044922 713.347229,742.235657
	C720.081543,739.540466 726.480225,735.861328 730.415405,729.761658
	C741.237488,712.987183 751.555420,695.886536 761.996460,678.867981
	C764.741699,674.393311 767.883606,670.719055 773.092834,668.777161
	C785.453796,664.169189 798.286011,660.542297 808.890503,652.065979
	C814.815369,647.330200 820.590393,642.140198 827.204529,638.593994
	C838.104004,632.750244 849.612305,628.036072 860.894470,622.913086
	C878.979187,614.701294 897.124634,606.621765 915.150269,598.282837
	C917.923950,596.999634 920.920471,595.118530 922.568054,592.674072
	C928.554871,583.791687 936.899536,579.604065 947.189697,577.707825
	C959.127563,575.507935 968.933716,569.684570 976.345520,559.511292
	C979.140198,555.675476 984.100525,553.105713 988.523438,550.834839
	C996.888794,546.539917 1005.504456,542.530151 1008.779480,532.898560
	C1010.902893,526.653503 1014.959229,523.596375 1020.749817,520.866760
	C1027.645386,517.616272 1034.783447,513.583618 1039.875122,508.090424
	C1048.656250,498.616669 1054.779907,487.173004 1057.795044,474.322083
	C1060.049927,464.712158 1061.015503,455.098877 1059.038208,445.316711
	C1057.966309,440.013824 1056.664307,434.715210 1056.163940,429.349609
	C1055.527222,422.523804 1057.140259,415.115387 1055.049683,408.873688
	C1050.346313,394.830627 1045.034180,380.667114 1029.577271,373.988892
	C1027.690430,373.173737 1026.963501,369.241547 1026.214600,366.607300
	C1026.072876,366.108459 1028.345581,364.201874 1029.545776,364.160858
	C1036.933228,363.908539 1044.372192,364.484528 1051.718628,363.875366
	C1063.234375,362.920471 1070.803467,356.305145 1074.940308,345.652191
	C1076.301270,342.147278 1077.552612,338.599792 1078.854004,335.071747
	C1078.946777,320.730804 1078.901001,307.327423 1078.537354,293.800354
	C1067.395996,289.732422 1056.600708,285.706757 1045.728394,281.901306
	C1043.010010,280.949890 1041.655762,279.754333 1041.910889,276.653107
	C1042.210449,273.011169 1042.055420,269.323822 1041.965820,265.659363
	C1041.674683,253.736267 1037.900269,248.683319 1027.662109,247.169235
	C1022.603943,246.421234 1017.430115,245.989502 1012.329224,246.135269
	C1007.748169,246.266190 1004.658936,244.830795 1002.839661,240.640594
	C1000.772034,235.878708 996.645386,233.883194 991.927307,233.087830
	C987.220764,232.294403 982.451660,231.656570 977.688843,231.458328
	C968.479065,231.074966 959.220093,230.495346 950.047791,231.065125
	C943.740295,231.456970 937.603027,234.074799 931.285889,234.940323
	C920.698364,236.390930 910.890198,238.935623 903.648071,247.684143
	C902.240540,249.384354 899.501038,250.716339 897.277283,250.880356
	C887.145081,251.627625 877.458679,253.034531 868.457336,258.606689
	C862.193481,262.484222 856.502747,266.289093 854.176514,273.616425
	C853.133667,276.901306 851.197327,278.457397 847.524780,278.096588
	C844.573303,277.806610 841.391602,277.626404 838.596497,278.410858
	C831.268433,280.467468 826.342896,277.889465 821.821838,272.119965
	C819.319885,268.927185 815.539429,266.327148 811.808411,264.594238
	C804.679932,261.283386 797.183105,258.761353 789.823425,255.953308
	C781.980408,252.960846 774.326721,248.967484 766.204651,247.359161
	C758.763184,245.885620 750.762817,246.493530 743.092285,247.154785
	C737.084106,247.672729 731.238220,250.577637 725.258606,250.805328
	C716.275879,251.147385 707.875977,252.530228 700.169678,257.812012
	C699.398132,256.739288 698.432556,255.913620 698.128784,254.891281
	C695.977844,247.654633 693.781372,240.422684 691.960876,233.099396
	C690.477783,227.133499 686.261230,224.974289 680.866638,224.038467
	C679.408325,223.785507 677.953735,223.425232 676.484070,223.338043
	C667.408813,222.799500 658.523010,223.150940 651.491455,230.079178
	C649.379700,232.159897 647.639832,232.521164 644.985596,230.729767
	C641.868835,228.626205 638.466003,226.530106 634.884827,225.617142
	C627.243835,223.669266 619.364746,222.678513 611.660950,220.949219
	C597.460327,217.761566 583.221741,216.242386 568.981384,220.160522
	C566.192871,220.927750 562.648315,223.042694 561.680603,225.436691
	C559.934326,229.756927 556.819153,230.936050 553.100891,231.865448
	C549.589355,232.743179 545.937561,233.178360 542.539856,234.360947
	C538.880127,235.634750 538.215820,234.090546 537.925049,230.948502
	C537.516174,226.529785 536.945374,222.097061 536.011658,217.763428
	C534.909180,212.646362 532.356262,207.666168 532.162292,202.560898
	C531.499268,185.105423 526.182678,169.198471 517.518188,154.305008
	C514.310608,148.791489 509.945160,143.941437 506.846985,138.377213
	C503.700317,132.725891 499.366608,129.243759 493.128265,128.219299
	C489.226013,127.578491 485.253387,127.316353 481.301483,127.039825
	C475.523193,126.635513 469.733856,126.392601 463.951752,126.039764
	C459.167725,125.747841 454.123291,124.287254 449.671143,125.347382
	C443.891083,126.723717 441.887604,124.513626 439.306152,120.030128
	C433.266205,109.539879 424.394806,102.726578 411.930847,100.892349
	C403.830200,99.700249 395.862427,97.598854 387.841400,95.875603
	C385.113281,95.289497 382.382843,94.693306 379.691071,93.963043
	C374.016541,92.423569 367.784363,91.809937 362.834656,88.976044
	C353.969238,83.900238 344.903351,79.966331 334.932343,77.783936
	C330.200195,76.748184 325.684692,74.722534 321.071045,73.145348
	C305.730804,73.051895 291.327911,73.098114 276.801392,73.444626 z" />
</clipPath>
</defs>

<g clip-path="url(#cat-clip)">
<polygon points="0,0 640,0 580,470 510,700 180,720 0,720" fill="#BFDDBB" />
<polygon points="640,0 1100,0 1100,540 940,530 580,470" fill="#E8E4CE" />
<polygon points="580,470 940,530 1100,540 1100,750 820,730 510,700" fill="#D6A0A0" />
<polygon points="0,720 180,720 510,700 820,730 1100,750 1100,1100 0,1100" fill="#ACD5DA" />
</g>

<g clip-path="url(#cat-clip)" stroke="rgba(255,255,255,0.55)" stroke-width="2" fill="none" stroke-linecap="round">
<polyline points="640,0 580,470 510,700 180,720" />
<polyline points="580,470 940,530 1100,540" />
<polyline points="510,700 820,730 1100,750" />
</g>

<path d="M276.801392,73.444626
	C271.661469,78.186638 268.701843,83.507904 267.655121,90.343781
	C266.514496,97.792824 263.425903,104.969513 262.544250,112.425484
	C261.525269,121.042587 261.290253,129.895187 262.037079,138.531174
	C262.591492,144.942032 267.143524,150.642197 266.257843,157.693619
	C265.906494,160.491104 266.808594,163.627289 267.793213,166.375198
	C270.160370,172.981689 273.363953,179.315262 275.366699,186.016953
	C276.927948,191.241241 278.791656,195.851669 282.902924,199.654541
	C284.124207,200.784195 284.232697,203.651825 284.038239,205.643768
	C283.786652,208.221725 282.884125,210.782455 281.950989,213.232193
	C281.265289,215.032425 280.159241,216.693756 279.099579,218.325455
	C277.447021,220.870102 274.468231,223.207291 274.182526,225.861740
	C273.364410,233.463165 272.526611,241.354630 273.719818,248.808167
	C275.297089,258.660675 279.027435,268.150116 281.363434,277.907837
	C282.427155,282.351166 281.820221,287.199707 282.923004,291.627380
	C285.753235,302.990845 284.557739,313.779297 279.888977,324.398071
	C273.243622,339.512421 269.895386,355.389435 268.918243,371.856415
	C268.689209,375.715851 267.530731,379.603668 266.279999,383.302643
	C263.011139,392.970398 259.466797,402.545319 255.999359,412.145325
	C255.500717,413.525940 255.176758,415.269409 254.162888,416.113312
	C249.230423,420.219269 243.813904,423.776978 239.116516,428.121033
	C235.675751,431.302948 231.903595,434.969452 230.359116,439.182465
	C227.195938,447.811096 227.172577,457.010956 229.153046,466.098053
	C230.380386,471.729492 225.578186,480.814636 220.274521,483.070068
	C212.818359,486.240845 205.972168,490.334747 202.523026,498.059448
	C200.449722,502.702759 197.067307,504.323059 192.389236,505.188202
	C185.770966,506.412231 179.970734,509.109100 176.036514,515.288696
	C172.333557,521.105042 168.512863,527.182007 163.477142,531.746765
	C151.826309,542.307800 151.427292,562.590027 155.821014,574.697937
	C157.371475,578.970520 158.534515,583.537170 158.916641,588.050659
	C159.939331,600.130432 162.748184,603.856689 174.447723,607.272278
	C176.049026,607.739746 177.512222,608.680298 179.039352,609.401855
	L179.128677,611.252686
	C175.819336,612.179016 172.557205,613.361816 169.191391,613.981323
	C160.644165,615.554688 156.856491,618.676758 156.100510,625.822144
	C155.509247,631.410828 155.558105,637.067993 154.946320,642.653503
	C154.576920,646.025879 153.728561,649.397095 152.680634,652.634521
	C148.886856,664.354797 147.962814,675.826294 154.405121,687.056335
	C155.680511,689.279602 156.458984,691.897644 156.959824,694.433716
	C158.137665,700.397949 158.695221,706.499329 160.133392,712.391541
	C160.886337,715.476318 160.354828,717.195312 157.534180,718.175171
	C149.817169,720.856018 146.712448,726.869385 144.637939,734.292236
	C143.432205,738.606567 143.729477,744.147461 138.179672,746.459595
	C132.379501,748.876099 126.546906,751.288757 121.008438,754.230225
	C117.932091,755.864014 114.055740,758.019958 112.896164,760.891968
	C107.113602,775.213745 105.960281,789.952576 111.378113,804.803833
	C112.393799,807.588013 113.334679,810.427246 113.972763,813.315674
	C115.395935,819.757935 117.334663,825.658508 123.849396,829.009399
	C127.729454,831.005005 128.875214,834.534241 127.173241,838.705322
	C126.121742,841.282349 124.938171,843.805115 123.846680,846.366272
	C118.477806,858.964294 118.593971,872.124512 120.116913,885.354065
	C121.136917,894.214600 117.916946,899.840698 109.443436,903.353455
	C106.258934,904.673645 103.240189,906.393677 100.145859,907.931396
	C100.075905,908.399780 100.075905,908.399780 100.075905,908.399780
	C100.053291,922.264587 100.100639,935.660950 100.079216,949.517883
	C108.014603,951.849365 115.783127,955.139038 120.986595,961.856079
	C123.065422,964.539551 123.758835,968.806030 123.887589,972.394836
	C124.275612,983.209778 128.640549,991.282593 138.864822,995.304504
	C147.093796,998.541626 155.510147,1001.366333 163.991211,1003.874023
	C168.880554,1005.319824 172.824966,1007.813477 173.668594,1012.699646
	C175.321777,1022.274719 180.973022,1027.912476 190.212402,1031.642334
	C204.598221,1031.948242 218.336777,1031.901978 232.664703,1031.615723
	C234.929886,1029.499878 237.420395,1026.499023 240.141357,1026.272949
	C246.186127,1025.770996 252.378830,1027.220093 258.453003,1026.868530
	C272.753906,1026.040527 285.264130,1021.380066 293.294739,1008.414978
	C295.730927,1004.481873 298.470612,1000.737854 301.017059,996.871521
	C304.759583,991.189270 309.730347,987.461487 316.128021,984.700256
	C341.550690,973.727966 348.089539,965.393433 347.937347,939.777710
	C347.857086,926.262451 344.815308,921.258911 333.962921,918.704102
	C326.916840,917.045288 322.873108,912.887085 319.413391,907.165100
	C317.516144,904.027222 317.445374,901.602112 319.744873,898.634460
	C326.719696,889.632690 333.132935,880.175659 340.420166,871.442749
	C345.799530,864.996338 352.197327,859.398621 358.157074,853.438416
	C360.472137,851.123169 363.184174,849.112976 365.108582,846.514404
	C374.374573,834.002380 386.432648,826.795654 402.212097,827.076782
	C409.783813,827.211731 417.356720,828.951721 424.893463,828.733643
	C429.204620,828.608887 434.548370,827.127136 437.447388,824.256775
	C441.410004,820.333130 445.094025,816.716980 450.456299,814.915588
	C452.277588,814.303711 454.210449,813.265564 455.468384,811.862732
	C461.892212,804.698669 470.185455,803.413208 479.253265,802.807617
	C490.265778,802.072144 501.206696,800.364685 510.714813,793.677002
	C520.378357,786.879944 531.500916,783.705933 543.066101,781.989624
	C553.814575,780.394592 564.769897,779.685730 575.284424,777.141479
	C591.293579,773.267578 606.799866,767.156860 622.903564,763.885681
	C634.644531,761.500610 645.854370,758.162537 656.978943,753.991333
	C660.454895,752.687988 664.384216,752.138977 668.121704,752.067444
	C683.871216,751.765625 698.832092,748.044922 713.347229,742.235657
	C720.081543,739.540466 726.480225,735.861328 730.415405,729.761658
	C741.237488,712.987183 751.555420,695.886536 761.996460,678.867981
	C764.741699,674.393311 767.883606,670.719055 773.092834,668.777161
	C785.453796,664.169189 798.286011,660.542297 808.890503,652.065979
	C814.815369,647.330200 820.590393,642.140198 827.204529,638.593994
	C838.104004,632.750244 849.612305,628.036072 860.894470,622.913086
	C878.979187,614.701294 897.124634,606.621765 915.150269,598.282837
	C917.923950,596.999634 920.920471,595.118530 922.568054,592.674072
	C928.554871,583.791687 936.899536,579.604065 947.189697,577.707825
	C959.127563,575.507935 968.933716,569.684570 976.345520,559.511292
	C979.140198,555.675476 984.100525,553.105713 988.523438,550.834839
	C996.888794,546.539917 1005.504456,542.530151 1008.779480,532.898560
	C1010.902893,526.653503 1014.959229,523.596375 1020.749817,520.866760
	C1027.645386,517.616272 1034.783447,513.583618 1039.875122,508.090424
	C1048.656250,498.616669 1054.779907,487.173004 1057.795044,474.322083
	C1060.049927,464.712158 1061.015503,455.098877 1059.038208,445.316711
	C1057.966309,440.013824 1056.664307,434.715210 1056.163940,429.349609
	C1055.527222,422.523804 1057.140259,415.115387 1055.049683,408.873688
	C1050.346313,394.830627 1045.034180,380.667114 1029.577271,373.988892
	C1027.690430,373.173737 1026.963501,369.241547 1026.214600,366.607300
	C1026.072876,366.108459 1028.345581,364.201874 1029.545776,364.160858
	C1036.933228,363.908539 1044.372192,364.484528 1051.718628,363.875366
	C1063.234375,362.920471 1070.803467,356.305145 1074.940308,345.652191
	C1076.301270,342.147278 1077.552612,338.599792 1078.854004,335.071747
	C1078.946777,320.730804 1078.901001,307.327423 1078.537354,293.800354
	C1067.395996,289.732422 1056.600708,285.706757 1045.728394,281.901306
	C1043.010010,280.949890 1041.655762,279.754333 1041.910889,276.653107
	C1042.210449,273.011169 1042.055420,269.323822 1041.965820,265.659363
	C1041.674683,253.736267 1037.900269,248.683319 1027.662109,247.169235
	C1022.603943,246.421234 1017.430115,245.989502 1012.329224,246.135269
	C1007.748169,246.266190 1004.658936,244.830795 1002.839661,240.640594
	C1000.772034,235.878708 996.645386,233.883194 991.927307,233.087830
	C987.220764,232.294403 982.451660,231.656570 977.688843,231.458328
	C968.479065,231.074966 959.220093,230.495346 950.047791,231.065125
	C943.740295,231.456970 937.603027,234.074799 931.285889,234.940323
	C920.698364,236.390930 910.890198,238.935623 903.648071,247.684143
	C902.240540,249.384354 899.501038,250.716339 897.277283,250.880356
	C887.145081,251.627625 877.458679,253.034531 868.457336,258.606689
	C862.193481,262.484222 856.502747,266.289093 854.176514,273.616425
	C853.133667,276.901306 851.197327,278.457397 847.524780,278.096588
	C844.573303,277.806610 841.391602,277.626404 838.596497,278.410858
	C831.268433,280.467468 826.342896,277.889465 821.821838,272.119965
	C819.319885,268.927185 815.539429,266.327148 811.808411,264.594238
	C804.679932,261.283386 797.183105,258.761353 789.823425,255.953308
	C781.980408,252.960846 774.326721,248.967484 766.204651,247.359161
	C758.763184,245.885620 750.762817,246.493530 743.092285,247.154785
	C737.084106,247.672729 731.238220,250.577637 725.258606,250.805328
	C716.275879,251.147385 707.875977,252.530228 700.169678,257.812012
	C699.398132,256.739288 698.432556,255.913620 698.128784,254.891281
	C695.977844,247.654633 693.781372,240.422684 691.960876,233.099396
	C690.477783,227.133499 686.261230,224.974289 680.866638,224.038467
	C679.408325,223.785507 677.953735,223.425232 676.484070,223.338043
	C667.408813,222.799500 658.523010,223.150940 651.491455,230.079178
	C649.379700,232.159897 647.639832,232.521164 644.985596,230.729767
	C641.868835,228.626205 638.466003,226.530106 634.884827,225.617142
	C627.243835,223.669266 619.364746,222.678513 611.660950,220.949219
	C597.460327,217.761566 583.221741,216.242386 568.981384,220.160522
	C566.192871,220.927750 562.648315,223.042694 561.680603,225.436691
	C559.934326,229.756927 556.819153,230.936050 553.100891,231.865448
	C549.589355,232.743179 545.937561,233.178360 542.539856,234.360947
	C538.880127,235.634750 538.215820,234.090546 537.925049,230.948502
	C537.516174,226.529785 536.945374,222.097061 536.011658,217.763428
	C534.909180,212.646362 532.356262,207.666168 532.162292,202.560898
	C531.499268,185.105423 526.182678,169.198471 517.518188,154.305008
	C514.310608,148.791489 509.945160,143.941437 506.846985,138.377213
	C503.700317,132.725891 499.366608,129.243759 493.128265,128.219299
	C489.226013,127.578491 485.253387,127.316353 481.301483,127.039825
	C475.523193,126.635513 469.733856,126.392601 463.951752,126.039764
	C459.167725,125.747841 454.123291,124.287254 449.671143,125.347382
	C443.891083,126.723717 441.887604,124.513626 439.306152,120.030128
	C433.266205,109.539879 424.394806,102.726578 411.930847,100.892349
	C403.830200,99.700249 395.862427,97.598854 387.841400,95.875603
	C385.113281,95.289497 382.382843,94.693306 379.691071,93.963043
	C374.016541,92.423569 367.784363,91.809937 362.834656,88.976044
	C353.969238,83.900238 344.903351,79.966331 334.932343,77.783936
	C330.200195,76.748184 325.684692,74.722534 321.071045,73.145348
	C305.730804,73.051895 291.327911,73.098114 276.801392,73.444626 z"
	fill="none" stroke="#7A7468" stroke-width="2.5" stroke-linejoin="round" />
</svg>
